<?xml version="1.0" encoding="UTF-8"?>
<svg version="1.1" xmlns="http://www.w3.org/2000/svg" width="980" height="980">
<path d="M0 0 C0.68658691 0.28423828 1.37317383 0.56847656 2.08056641 0.86132812 C33.03147837 13.83283502 61.94833562 31.4993007 86.42578125 54.57421875 C88.65536417 56.67523695 90.92428517 58.69467278 93.25 60.6875 C100.05715804 66.60676786 106.20322265 73.09804267 112 80 C112.44972168 80.53061035 112.89944336 81.0612207 113.36279297 81.60791016 C126.08677696 96.67979666 137.30696825 112.81845789 147 130 C147.39251953 130.68932617 147.78503906 131.37865234 148.18945312 132.08886719 C155.77594582 145.53655669 161.60862735 159.54731218 167 174 C167.30421875 174.8132373 167.6084375 175.62647461 167.921875 176.46435547 C174.9598971 195.59067851 179.49889955 215.7907743 182 236 C182.10296387 236.80308594 182.20592773 237.60617187 182.31201172 238.43359375 C186.64345153 273.52304616 184.49515079 309.71254858 176 344 C175.6289917 345.51255371 175.6289917 345.51255371 175.25048828 347.05566406 C169.9336306 368.30306897 162.29334566 388.74183782 152.00634766 408.09326172 C150.93373963 410.12554428 149.89338525 412.17245658 148.85546875 414.22265625 C130.39991517 450.35595875 102.0785789 483.18920947 69.78710938 507.64550781 C68.60230859 508.54349617 67.42125483 509.44645136 66.24414062 510.35449219 C55.69754121 518.48391871 44.57204712 525.42507229 33 532 C31.76685059 532.70406982 31.76685059 532.70406982 30.50878906 533.42236328 C-35.22887095 570.52814014 -116.2961539 578.83776042 -188.85546875 559.1796875 C-249.90641251 542.00750409 -306.34572145 505.72226297 -344.67773438 454.75488281 C-346.00699452 452.99071703 -347.35447286 451.24155427 -348.703125 449.4921875 C-356.31377546 439.49895416 -362.78611261 428.90622358 -369 418 C-369.65548828 416.8560376 -369.65548828 416.8560376 -370.32421875 415.68896484 C-407.62613853 349.87977022 -415.72010623 268.87760164 -396.21484375 196.2109375 C-392.15786092 181.69396779 -387.12028463 167.76731562 -381 154 C-380.64856934 153.19691406 -380.29713867 152.39382813 -379.93505859 151.56640625 C-371.71763038 132.91931251 -361.38394093 115.1903022 -349 99 C-348.55414551 98.41283203 -348.10829102 97.82566406 -347.64892578 97.22070312 C-342.37647271 90.30395335 -336.93211708 83.62588693 -331.0390625 77.22265625 C-329.18749705 75.20437897 -327.40167 73.14650865 -325.625 71.0625 C-318.62839953 63.06638518 -311.08784396 55.82073376 -302.765625 49.21875 C-300.97211476 47.77988868 -299.20882565 46.30219405 -297.484375 44.78125 C-282.11668122 31.30081686 -264.17074503 20.28909799 -246 11 C-245.20625977 10.59088379 -244.41251953 10.18176758 -243.59472656 9.76025391 C-214.2555611 -5.20812174 -182.5994498 -14.59715126 -150 -19 C-149.17387207 -19.11714355 -148.34774414 -19.23428711 -147.49658203 -19.35498047 C-98.35460012 -26.08662179 -45.71761106 -18.97148794 0 0 Z " fill="#1185FE" transform="translate(601,216)"/>
<path d="M0 0 C22.92341341 12.35379433 43.28706263 32.29266135 60 52 C60.845625 52.95648438 61.69125 53.91296875 62.5625 54.8984375 C71.30108682 64.82499574 79.21741892 75.31407261 87 86 C87.60134766 86.82306641 88.20269531 87.64613281 88.82226562 88.49414062 C98.05096197 101.19242335 106.24949652 114.3538374 114 128 C114.48839355 128.84900879 114.97678711 129.69801758 115.47998047 130.57275391 C115.93904785 131.38019043 116.39811523 132.18762695 116.87109375 133.01953125 C117.48682251 134.09811401 117.48682251 134.09811401 118.11499023 135.19848633 C119 137 119 137 119 139 C119.66 139 120.32 139 121 139 C121.34804688 137.77990234 121.34804688 137.77990234 121.703125 136.53515625 C123.29286363 132.20168196 125.42114701 128.41163494 127.75 124.4375 C128.23170654 123.6125 128.71341309 122.7875 129.2097168 121.9375 C144.2178615 96.5622164 161.80744407 72.10366392 181.8046875 50.40625 C183.65374028 48.37953022 185.45024353 46.32286518 187.2421875 44.24609375 C196.82957818 33.26752128 207.32617447 22.75116993 219 14 C219.51030762 13.60796387 220.02061523 13.21592773 220.54638672 12.81201172 C237.41049616 -0.09886479 257.99267437 -12.71914993 280 -10 C283.38171416 -9.12271473 286.0728167 -7.89195994 289 -6 C289.95132813 -5.41605469 289.95132813 -5.41605469 290.921875 -4.8203125 C297.25641716 -0.24536538 300.02264269 7.22113448 301.55053711 14.69189453 C302.06156597 18.45313359 302.15792653 22.14242808 302.13671875 25.9296875 C302.13395432 26.67652802 302.13118988 27.42336853 302.12834167 28.19284058 C302.06014953 35.53883047 301.50209828 42.81238493 300.8125 50.125 C300.68042224 51.57286502 300.54893574 53.02078408 300.41796875 54.46875 C300.20005292 56.87161619 299.98096875 59.27435124 299.75869751 61.67681885 C299.18184975 67.92257668 298.63933082 74.17082948 298.108078 80.42062378 C297.68549613 85.37795466 297.25402456 90.33449283 296.82138062 95.29095459 C296.60854703 97.7472615 296.39888836 100.20384574 296.1925354 102.66070557 C295.89838844 106.14971508 295.59120626 109.63736393 295.28125 113.125 C295.1968718 114.16026825 295.11249359 115.1955365 295.02555847 116.26217651 C293.30415091 135.10943405 285.82068065 153.77163424 272 167 C255.39802439 180.68541233 235.41685493 186.00466379 214.3125 186.625 C212.66991211 186.68300781 212.66991211 186.68300781 210.99414062 186.7421875 C208.329582 186.83527252 205.66500978 186.92109852 203 187 C203.969375 187.27972656 204.93875 187.55945313 205.9375 187.84765625 C225.06634821 193.50341422 247.03518081 201.25862458 257.48828125 219.61328125 C262.29063533 228.96096202 264.09890767 239.38995963 260.875 249.6875 C260.28767083 251.14079821 259.65891951 252.57772846 259 254 C258.58621094 254.94359375 258.17242188 255.8871875 257.74609375 256.859375 C254.37754889 264.09210892 250.20016623 269.98206569 245 276 C244.484375 276.63679688 243.96875 277.27359375 243.4375 277.9296875 C239.71249861 282.48471637 235.54298609 286.27280548 231 290 C229.59427734 291.17949219 229.59427734 291.17949219 228.16015625 292.3828125 C214.3350389 303.69011047 199.28379885 311.35082703 181.10058594 310.24267578 C175.9041683 309.6423458 171.51641846 307.51657789 167 305 C166.22527344 304.58878906 165.45054687 304.17757813 164.65234375 303.75390625 C142.56824465 290.62808368 128.84342816 259.59998284 122.39355469 235.75830078 C121.91310033 233.84279403 121.45444686 231.92184301 121 230 C120.34 230 119.68 230 119 230 C118.6596875 231.85625 118.6596875 231.85625 118.3125 233.75 C116.94544038 239.83105831 114.50638869 245.312915 112 251 C111.40244797 252.41355672 110.80616639 253.82765096 110.2109375 255.2421875 C100.84918204 277.23601461 88.9303378 298.23064386 66 308 C54.98846005 312.16711218 43.65689279 310.28043443 33 306 C24.42136116 302.05981123 17.07286856 297.22071572 10 291 C9.4946875 290.56558594 8.989375 290.13117188 8.46875 289.68359375 C-5.51246745 277.61807196 -20.64823462 261.41955623 -22.3359375 242.16796875 C-22.4694203 228.56607107 -19.45614097 220.00014908 -10 210 C2.75170056 197.53858205 19.7859632 190.65636937 37 187 C35.95211304 186.98598145 35.95211304 186.98598145 34.88305664 186.97167969 C8.85012316 186.53555269 -14.86665211 183.53598869 -34.46484375 164.62109375 C-50.8261683 147.22527613 -54.18406799 127.4358289 -56.0625 104.5 C-56.30394515 101.66004096 -56.5481544 98.82032854 -56.7925415 95.98062134 C-56.95419883 94.09870638 -57.11464127 92.21668666 -57.27386475 90.33456421 C-57.81034965 84.03199772 -58.40940297 77.73802246 -59.05078125 71.4453125 C-65.1343014 11.67842941 -65.1343014 11.67842941 -54 -2 C-39.05322767 -17.39243297 -16.69088793 -8.17080382 0 0 Z " fill="#FEFEFE" transform="translate(370,340)"/>
</svg>
